<svg width="34" height="34" viewBox="0 0 34 34" fill="none" xmlns="http://www.w3.org/2000/svg">
    <g clip-path="url(#clip0_313_6933)">
        <path fill-rule="evenodd" clip-rule="evenodd" d="M26.3939 24.7913C27.5096 23.6755 28.1364 22.1622 28.1364 20.5843C28.1364 19.0065 27.5096 17.4932 26.3939 16.3773L17.2379 7.22135C16.9752 6.95884 16.8276 6.60272 16.8275 6.23135C16.8273 5.85997 16.9747 5.50375 17.2372 5.24105C17.4997 4.97835 17.8559 4.8307 18.2272 4.83057C18.5986 4.83044 18.9548 4.97784 19.2175 5.24035L28.3735 14.3964C30.0147 16.0371 30.9368 18.2627 30.9371 20.5834C30.9374 22.904 30.0157 25.1298 28.3749 26.771C26.7341 28.4121 24.5086 29.3343 22.1879 29.3345C19.8672 29.3348 17.6415 28.4131 16.0003 26.7723L4.86473 15.6353C3.68306 14.4535 3.01928 12.8506 3.01941 11.1794C3.01954 9.50809 3.68358 7.90532 4.86543 6.72365C6.04729 5.54198 7.65016 4.8782 9.32143 4.87833C10.9927 4.87846 12.5955 5.54249 13.7771 6.72435L24.9113 17.8585C25.6163 18.5847 26.0073 19.559 25.9998 20.5711C25.9923 21.5831 25.5868 22.5516 24.8711 23.2671C24.1554 23.9827 23.1868 24.3879 22.1748 24.3951C21.1627 24.4024 20.1885 24.0112 19.4625 23.3059L9.31813 13.1602C9.05544 12.8976 8.90778 12.5415 8.90765 12.1701C8.90752 11.7988 9.05492 11.4425 9.31743 11.1799C9.57994 10.9172 9.93606 10.7695 10.3074 10.7694C10.6788 10.7692 11.035 10.9166 11.2977 11.1792L21.4435 21.3249C21.6407 21.5223 21.9082 21.6332 22.1871 21.6334C22.4661 21.6335 22.7337 21.5228 22.931 21.3256C23.1284 21.1285 23.2393 20.861 23.2395 20.582C23.2396 20.3031 23.1289 20.0355 22.9317 19.8382L11.7975 8.70395C11.4725 8.37872 11.0866 8.12069 10.6618 7.94461C10.237 7.76852 9.78174 7.67783 9.32192 7.6777C8.86211 7.67757 8.40677 7.76801 7.9819 7.94385C7.55703 8.1197 7.17097 8.3775 6.84573 8.70255C6.1889 9.35901 5.81974 10.2495 5.81948 11.1782C5.81922 12.1068 6.18787 12.9975 6.84433 13.6543L17.9799 24.7899C19.0958 25.9056 20.609 26.5324 22.1869 26.5324C23.7648 26.5324 25.2781 25.9056 26.3939 24.7899V24.7913Z" fill="white"/>
    </g>
    <defs>
        <clipPath id="clip0_313_6933">
            <rect width="33.6" height="33.6" fill="white" transform="translate(0.199951 0.200195)"/>
        </clipPath>
    </defs>
</svg>
