<svg width="16" height="16" viewBox="0 0 16 16" fill="none" xmlns="http://www.w3.org/2000/svg">
    <path d="M5 3.3335C3.83567 3.3335 2.7786 3.65141 2 4.16868V12.8354C2.7786 12.3181 3.83567 12.0002 5 12.0002C6.16433 12.0002 7.2214 12.3181 8 12.8354C8.7786 12.3181 9.83567 12.0002 11 12.0002C12.1643 12.0002 13.2214 12.3181 14 12.8354V4.16868C13.2214 3.65141 12.1643 3.3335 11 3.3335C9.83567 3.3335 8.7786 3.65141 8 4.16868C7.2214 3.65141 6.16433 3.3335 5 3.3335Z" fill="#333333"/>
    <path d="M8 4.16868V12.8354M8 4.16868C7.2214 3.65141 6.16433 3.3335 5 3.3335C3.83567 3.3335 2.7786 3.65141 2 4.16868V12.8354C2.7786 12.3181 3.83567 12.0002 5 12.0002C6.16433 12.0002 7.2214 12.3181 8 12.8354M8 4.16868C8.7786 3.65141 9.83567 3.3335 11 3.3335C12.1643 3.3335 13.2214 3.65141 14 4.16868V12.8354C13.2214 12.3181 12.1643 12.0002 11 12.0002C9.83567 12.0002 8.7786 12.3181 8 12.8354" stroke="#333333" stroke-width="2" stroke-linecap="round" stroke-linejoin="round"/>
</svg>
