<svg width="49" height="48" viewBox="0 0 49 48" fill="none" xmlns="http://www.w3.org/2000/svg">
    <ellipse cx="24.3508" cy="24" rx="24.2105" ry="24" fill="#EF308D"/>
    <path fill-rule="evenodd" clip-rule="evenodd" d="M30.4035 19H28.386V18C28.386 16.8954 27.4827 16 26.3684 16H22.3333C21.2191 16 20.3158 16.8954 20.3158 18V19H18.2982V33H30.4035V19ZM32.4211 19H31.4123V33H32.4211C33.5353 33 34.4386 32.1046 34.4386 31V21C34.4386 19.8954 33.5353 19 32.4211 19ZM17.2895 19V33H16.2807C15.1664 33 14.2632 32.1046 14.2632 31V21C14.2632 19.9 15.1711 19 16.2807 19H17.2895ZM22.3333 19V18H26.3683V19H22.3333Z" fill="white"/>
</svg>
