<svg width="43" height="43" viewBox="0 0 43 43" fill="none" xmlns="http://www.w3.org/2000/svg">
    <g filter="url(#filter0_d_11_843)">
        <circle cx="21.5" cy="18.5" r="15.5" fill="#ECE6EE"/>
    </g>
    <path fill-rule="evenodd" clip-rule="evenodd" d="M27.3033 12.6969C26.7175 12.1111 25.7678 12.1111 25.182 12.6969L22 15.8789L18.818 12.6969C18.2323 12.1111 17.2825 12.1111 16.6967 12.6969C16.1109 13.2827 16.1109 14.2324 16.6967 14.8182L19.8787 18.0002L16.6967 21.1822C16.1109 21.768 16.1109 22.7177 16.6967 23.3035C17.2825 23.8893 18.2323 23.8893 18.818 23.3035L22 20.1215L25.182 23.3035C25.7678 23.8893 26.7175 23.8893 27.3033 23.3035C27.8891 22.7177 27.8891 21.768 27.3033 21.1822L24.1213 18.0002L27.3033 14.8182C27.8891 14.2324 27.8891 13.2827 27.3033 12.6969Z" fill="#EF308D"/>
    <defs>
        <filter id="filter0_d_11_843" x="0.961538" y="0.984615" width="41.0769" height="41.0769" filterUnits="userSpaceOnUse" color-interpolation-filters="sRGB">
            <feFlood flood-opacity="0" result="BackgroundImageFix"/>
            <feColorMatrix in="SourceAlpha" type="matrix" values="0 0 0 0 0 0 0 0 0 0 0 0 0 0 0 0 0 0 127 0" result="hardAlpha"/>
            <feOffset dy="3.02308"/>
            <feGaussianBlur stdDeviation="2.51923"/>
            <feComposite in2="hardAlpha" operator="out"/>
            <feColorMatrix type="matrix" values="0 0 0 0 0 0 0 0 0 0 0 0 0 0 0 0 0 0 0.15 0"/>
            <feBlend mode="normal" in2="BackgroundImageFix" result="effect1_dropShadow_11_843"/>
            <feBlend mode="normal" in="SourceGraphic" in2="effect1_dropShadow_11_843" result="shape"/>
        </filter>
    </defs>
</svg>
