<svg width="49" height="48" viewBox="0 0 49 48" fill="none" xmlns="http://www.w3.org/2000/svg">
    <ellipse cx="24.4211" cy="24" rx="24.2105" ry="24" fill="#EF308D"/>
    <g clip-path="url(#clip0_26_1541)">
        <path d="M31.95 27.2847C31.479 26.3028 29.794 24.9397 28.166 23.6227C27.258 22.8887 26.4 22.1947 25.853 21.6477C25.716 21.5097 25.511 21.4657 25.33 21.5307C24.993 21.6528 24.785 21.7467 24.621 21.8197C24.3711 21.9317 24.2871 21.9697 23.95 22.0037C23.8766 22.011 23.8058 22.0344 23.7425 22.0722C23.6792 22.1101 23.6251 22.1615 23.584 22.2227C22.877 23.2797 22.145 23.1897 21.656 23.0257C21.5 22.9737 21.472 22.9067 21.457 22.8427C21.352 22.4037 21.879 21.3817 22.562 20.6987C24.187 19.0727 25.025 18.6657 26.795 19.4567C28.803 20.3547 30.815 21.0577 30.835 21.0647C30.8971 21.0864 30.9628 21.0957 31.0284 21.092C31.0941 21.0882 31.1583 21.0716 31.2175 21.043C31.2767 21.0143 31.3296 20.9743 31.3733 20.9252C31.417 20.8761 31.4505 20.8188 31.472 20.7567C31.562 20.4957 31.425 20.2107 31.164 20.1197C31.144 20.1127 29.172 19.4237 27.204 18.5427C24.911 17.5177 23.653 18.1927 21.856 19.9907C21.172 20.6747 20.243 22.0587 20.483 23.0737C20.586 23.5057 20.89 23.8257 21.342 23.9747C22.475 24.3487 23.5089 23.9907 24.279 22.9687C24.597 22.9197 24.77 22.8477 25.0299 22.7307C25.1456 22.6785 25.2623 22.6285 25.38 22.5807C25.952 23.1177 26.724 23.7427 27.537 24.3997C29.007 25.5887 30.674 26.9367 31.049 27.7167C31.234 28.1017 31.035 28.3527 30.9 28.4677C30.702 28.6377 30.431 28.6917 30.284 28.5887C30.122 28.4777 29.911 28.4707 29.744 28.5707C29.6618 28.6197 29.5954 28.6913 29.5526 28.7769C29.5099 28.8625 29.4927 28.9586 29.503 29.0537C29.537 29.3717 29.246 29.5537 29.12 29.6167C28.8 29.7787 28.466 29.7507 28.341 29.6347C28.2009 29.5047 27.9999 29.4667 27.822 29.5327C27.644 29.5997 27.5199 29.7637 27.5019 29.9537C27.4719 30.2817 27.2289 30.5967 26.9119 30.7197C26.7589 30.7777 26.5369 30.8127 26.3379 30.6307C26.2769 30.5757 26.2034 30.5364 26.1238 30.5162C26.0442 30.496 25.9608 30.4954 25.881 30.5147C25.801 30.5342 25.7271 30.5731 25.6659 30.6281C25.6047 30.6831 25.558 30.7523 25.53 30.8297C25.511 30.8797 25.4679 30.9997 24.9999 30.9997C24.6669 30.9997 24.0679 30.7747 23.775 30.5807C23.424 30.3497 21.2229 28.7077 19.322 27.1157C19.055 26.8907 18.593 26.4086 18.185 25.9826C17.823 25.6046 17.492 25.2617 17.322 25.1177C17.109 24.9377 16.794 24.9647 16.617 25.1767C16.439 25.3877 16.4649 25.7037 16.676 25.8817C16.831 26.0127 17.131 26.3297 17.462 26.6747C17.908 27.1406 18.369 27.6227 18.679 27.8827C20.541 29.4417 22.779 31.1247 23.225 31.4177C23.593 31.6597 24.386 31.9997 25 31.9997C25.493 31.9997 25.872 31.8867 26.135 31.6657C26.487 31.8027 26.887 31.8037 27.272 31.6537C27.727 31.4777 28.101 31.1227 28.313 30.6927C28.707 30.7767 29.158 30.7177 29.568 30.5117C29.969 30.3097 30.2589 30.0007 30.4029 29.6397C30.801 29.6607 31.2109 29.5197 31.5499 29.2287C32.124 28.7377 32.282 27.9738 31.95 27.2847Z" fill="white"/>
        <path d="M23 18.9995H18.5C18.224 18.9995 18 19.2235 18 19.4995C18 19.7755 18.224 19.9995 18.5 19.9995H23C23.276 19.9995 23.5 19.7755 23.5 19.4995C23.5 19.2235 23.276 18.9995 23 18.9995ZM33.415 26.2205C33.26 25.9915 32.95 25.9285 32.721 26.0845L31.259 27.0665C31.03 27.2205 30.969 27.5315 31.123 27.7605C31.169 27.8285 31.231 27.8843 31.3035 27.9228C31.3761 27.9613 31.4569 27.9815 31.539 27.9815C31.6341 27.9815 31.731 27.9545 31.8171 27.8965L33.279 26.9145C33.508 26.7605 33.569 26.4495 33.415 26.2205ZM30.311 28.6065C29.953 28.3245 28.352 26.6856 27.362 25.6536C27.171 25.4535 26.854 25.4466 26.655 25.6386C26.4549 25.8296 26.4489 26.1465 26.64 26.3456C26.897 26.6136 29.1639 28.9766 29.691 29.3926C29.779 29.462 29.8878 29.4997 30 29.4996C30.147 29.4996 30.294 29.4336 30.3939 29.3086C30.565 29.0925 30.528 28.7775 30.311 28.6065ZM28.313 29.6095C27.714 29.1305 26.209 27.5315 25.869 27.1615C25.6809 26.9575 25.3659 26.9455 25.1619 27.1315C24.9589 27.3185 24.945 27.6355 25.1319 27.8385C25.1499 27.8575 26.946 29.7966 27.6879 30.3906C27.7767 30.461 27.8866 30.4994 27.9999 30.4995C28.146 30.4995 28.2919 30.4345 28.3909 30.3126C28.563 30.0965 28.528 29.7815 28.313 29.6095ZM26.323 30.6165C25.61 30.0156 24.151 28.4625 23.866 28.1575C23.677 27.9555 23.36 27.9445 23.159 28.1335C22.957 28.3225 22.947 28.6385 23.135 28.8405C23.545 29.2795 24.941 30.7596 25.678 31.3815C25.768 31.4577 25.8821 31.4995 26 31.4995C26.142 31.4995 26.284 31.4385 26.383 31.3215C26.561 31.1095 26.534 30.7945 26.323 30.6165Z" fill="white"/>
        <path d="M18.844 18.1367C17.987 17.3247 14.56 17.0617 13.53 17.0007C13.388 16.9937 13.257 17.0407 13.157 17.1357C13.1074 17.1824 13.0679 17.2388 13.0409 17.3014C13.0139 17.364 13 17.4315 13 17.4997V26.4997C13 26.7757 13.224 26.9997 13.5 26.9997H16.5C16.716 26.9997 16.908 26.8607 16.975 26.6547C17.048 26.4307 18.771 21.1427 18.998 18.5427C19.011 18.3907 18.955 18.2407 18.844 18.1367ZM16.135 25.9997H14V18.0357C15.607 18.1627 17.341 18.4387 17.971 18.7447C17.706 20.9347 16.507 24.8257 16.135 25.9997ZM36.5 17.9997C32.574 17.9997 30.396 19.0047 30.305 19.0467C30.175 19.1077 30.078 19.2207 30.038 19.3577C29.998 19.4947 30.018 19.6417 30.093 19.7637C30.711 20.7587 32.646 26.2847 33.018 27.6327C33.0471 27.7382 33.11 27.8312 33.197 27.8975C33.2841 27.9638 33.3905 27.9997 33.5 27.9997H36.5C36.776 27.9997 37 27.7756 37 27.4996V18.4996C37 18.434 36.9871 18.3689 36.962 18.3082C36.9369 18.2476 36.9001 18.1924 36.8537 18.146C36.8072 18.0995 36.7521 18.0627 36.6914 18.0376C36.6307 18.0125 36.5656 17.9996 36.5 17.9997ZM36 26.9997H33.874C33.4 25.4557 32 21.4297 31.219 19.7657C31.982 19.5067 33.621 19.0617 36 19.0057V26.9997Z" fill="white"/>
    </g>
    <defs>
        <clipPath id="clip0_26_1541">
            <rect width="24" height="24" fill="white" transform="translate(13 12.5)"/>
        </clipPath>
    </defs>
</svg>
