<svg width="16" height="16" viewBox="0 0 16 16" fill="none" xmlns="http://www.w3.org/2000/svg">
    <g clip-path="url(#clip0_84_1763)">
        <path d="M13 15.3333H12.0733C12.2393 15.1508 12.3319 14.9134 12.3333 14.6667C12.3333 14.1133 11.3333 13 11.3333 13C11.3333 13 10.3333 14.1133 10.3333 14.6667C10.3348 14.9134 10.4274 15.1508 10.5933 15.3333H8.74C8.90593 15.1508 8.99853 14.9134 9 14.6667C9 14.1133 8 13 8 13C8 13 7 14.1133 7 14.6667C7.00147 14.9134 7.09407 15.1508 7.26 15.3333H5.40667C5.5726 15.1508 5.6652 14.9134 5.66667 14.6667C5.66667 14.1133 4.66667 13 4.66667 13C4.66667 13 3.66667 14.1133 3.66667 14.6667C3.66814 14.9134 3.76074 15.1508 3.92667 15.3333H3C2.9116 15.3333 2.82681 15.3685 2.7643 15.431C2.70179 15.4935 2.66667 15.5783 2.66667 15.6667C2.66667 15.7551 2.70179 15.8399 2.7643 15.9024C2.82681 15.9649 2.9116 16 3 16H13C13.0884 16 13.1732 15.9649 13.2357 15.9024C13.2982 15.8399 13.3333 15.7551 13.3333 15.6667C13.3333 15.5783 13.2982 15.4935 13.2357 15.431C13.1732 15.3685 13.0884 15.3333 13 15.3333ZM2.33333 5V9C2.33333 9.70724 2.61429 10.3855 3.11438 10.8856C3.61448 11.3857 4.29276 11.6667 5 11.6667H11C11.7072 11.6667 12.3855 11.3857 12.8856 10.8856C13.3857 10.3855 13.6667 9.70724 13.6667 9V5H2.33333ZM0.633335 5.3C0.515162 5.4158 0.426524 5.55829 0.374876 5.71548C0.323229 5.87267 0.310082 6.03996 0.336541 6.20328C0.362999 6.36661 0.42829 6.52119 0.526923 6.65404C0.625555 6.78688 0.754645 6.89409 0.903335 6.96667L1.66667 7.33333V5C1.48296 4.96918 1.29466 4.98014 1.11577 5.03208C0.936873 5.08401 0.771979 5.17559 0.633335 5.3ZM15.3667 5.3C15.2274 5.17661 15.0624 5.08569 14.8837 5.03381C14.705 4.98193 14.517 4.97038 14.3333 5V7.33333L15.0967 6.95C15.2423 6.87671 15.3686 6.76999 15.4651 6.63855C15.5616 6.50712 15.6257 6.35471 15.652 6.19378C15.6784 6.03286 15.6662 5.86798 15.6166 5.71264C15.567 5.5573 15.4814 5.4159 15.3667 5.3ZM7.78667 2.85333C7.10333 3.42333 7.29 4 7.66667 4C7.75507 4 7.83986 3.96488 7.90237 3.90237C7.96488 3.83986 8 3.75507 8 3.66667C8 3.36 8.66667 3.26333 8.66667 2.55667C8.66667 1.66667 7.54 1.70333 8.21333 1.14333C8.88667 0.583333 8.71334 0 8.33333 0C8.24493 0 8.16014 0.035119 8.09763 0.0976311C8.03512 0.160143 8 0.244928 8 0.333333C8 0.64 7.33333 0.736667 7.33333 1.44333C7.33333 2.15 8 2.25 8 2.55667C8 2.66667 7.94667 2.72 7.78667 2.85333ZM5.12 2.85333C4.43667 3.42333 4.62333 4 5 4C5.08841 4 5.17319 3.96488 5.2357 3.90237C5.29822 3.83986 5.33333 3.75507 5.33333 3.66667C5.33333 3.36 6 3.26333 6 2.55667C6 1.66667 4.87333 1.70333 5.54667 1.14333C6.22 0.583333 6.04667 0 5.66667 0C5.57826 0 5.49348 0.035119 5.43097 0.0976311C5.36845 0.160143 5.33333 0.244928 5.33333 0.333333C5.33333 0.64 4.66667 0.736667 4.66667 1.44333C4.66667 2.15 5.33333 2.25 5.33333 2.55667C5.33333 2.66667 5.28 2.72 5.12 2.85333ZM10.4533 2.85333C9.77 3.42333 9.95667 4 10.3333 4C10.4217 4 10.5065 3.96488 10.569 3.90237C10.6315 3.83986 10.6667 3.75507 10.6667 3.66667C10.6667 3.36 11.3333 3.26333 11.3333 2.55667C11.3333 1.66667 10.2067 1.70333 10.88 1.14333C11.5533 0.583333 11.38 0 11 0C10.9116 0 10.8268 0.035119 10.7643 0.0976311C10.7018 0.160143 10.6667 0.244928 10.6667 0.333333C10.6667 0.64 10 0.736667 10 1.44333C10 2.15 10.6667 2.25 10.6667 2.55667C10.6667 2.66667 10.6133 2.72 10.4533 2.85333Z" fill="black"/>
    </g>
    <defs>
        <clipPath id="clip0_84_1763">
            <rect width="16" height="16" fill="white"/>
        </clipPath>
    </defs>
</svg>
