<svg width="24" height="24" viewBox="0 0 24 24" fill="none" xmlns="http://www.w3.org/2000/svg">
    <path d="M23.3516 19.5219L15.8247 11.9993L23.3458 4.47235C24.2132 3.60785 24.2132 2.21745 23.3487 1.35006L22.6499 0.649817C22.2393 0.229093 21.6773 0 21.0866 0C21.0837 0 21.0837 0 21.0837 0C20.493 0 19.9383 0.231975 19.5233 0.648376L11.9993 8.17818L4.47235 0.657021C3.60929 -0.207481 2.22033 -0.211803 1.35294 0.652698L0.652698 1.34574C0.230534 1.75926 0 2.32119 0 2.91049C0 3.50267 0.231974 4.06028 0.648375 4.47524L8.17817 11.9993L0.655579 19.5262C-0.211803 20.3907 -0.211803 21.7811 0.652698 22.6514L1.3515 23.3502C1.76502 23.7709 2.32551 24 2.91625 24C3.50411 24 4.06603 23.7651 4.47955 23.3516L12.0021 15.8233L19.5262 23.343C19.9527 23.7738 20.5204 23.9914 21.0895 23.9914C21.6529 23.9914 22.2177 23.7767 22.6485 23.3473L23.3473 22.6499C23.7709 22.2393 24 21.6774 24 21.0866C24.0029 20.4959 23.7709 19.9383 23.3545 19.5219H23.3516Z" fill="#EB5757"/>
</svg>
