<svg width="25" height="24" viewBox="0 0 25 24" fill="none" xmlns="http://www.w3.org/2000/svg">
    <path d="M18.915 14.0411C18.7804 14.0411 18.6484 14.0531 18.5182 14.0703C18.2527 13.6455 17.9399 13.2523 17.5856 12.8981C16.7735 12.0838 15.7668 11.4905 14.661 11.1746C15.8471 10.5142 16.6519 9.24896 16.6519 7.79771C16.6519 5.66733 14.9186 3.93408 12.7882 3.93408C10.9729 3.93408 9.45037 5.19408 9.03825 6.88458C8.76263 6.80573 8.47743 6.76535 8.19075 6.76458C6.441 6.76458 5.0175 8.18996 5.0175 9.94233C5.0175 11.0745 5.61525 12.0671 6.51038 12.6288C4.28663 13.3417 2.67188 15.4271 2.67188 17.8845V18.6427C2.67188 18.7422 2.71138 18.8375 2.78171 18.9079C2.85204 18.9782 2.94742 19.0177 3.04687 19.0177H6.3795L6.38137 19.0181H16.6357C16.9177 19.3468 17.2673 19.6106 17.6607 19.7916C18.0541 19.9726 18.482 20.0664 18.915 20.0666C20.5766 20.0666 21.9281 18.7151 21.9281 17.0538C21.9281 15.3926 20.5762 14.0411 18.915 14.0411ZM12.7886 4.68408C14.5054 4.68408 15.9022 6.08096 15.9022 7.79771C15.9022 9.50808 14.5159 10.8997 12.8077 10.9102L12.7901 10.9095L12.771 10.9106C11.0625 10.9008 9.675 9.50883 9.675 7.79771C9.675 6.08096 11.0719 4.68408 12.7886 4.68408ZM5.76787 9.94233C5.76787 8.60358 6.85462 7.51458 8.19112 7.51458C8.44837 7.51458 8.69737 7.55433 8.93325 7.63233C8.931 7.68746 8.925 7.74183 8.925 7.79771C8.925 9.25046 9.732 10.5172 10.92 11.1768C10.6632 11.2493 10.411 11.3371 10.1647 11.4397C10.1535 11.4438 10.1426 11.4476 10.1321 11.4525C9.60829 11.6759 9.11537 11.9658 8.6655 12.315C8.50959 12.3475 8.35078 12.3642 8.1915 12.3648C7.54903 12.3644 6.93297 12.1091 6.47857 11.6549C6.02417 11.2007 5.76857 10.5848 5.76787 9.94233ZM6.00637 17.6936V18.2677H3.42187V17.8845C3.42187 15.3948 5.34038 13.3477 7.776 13.1362C6.6377 14.381 6.00643 16.0068 6.00637 17.6936ZM16.1599 18.2681H13.3369L13.335 18.2677H6.75637V17.6936C6.75637 15.9101 7.53712 14.2323 8.8995 13.0833C8.91511 13.0733 8.92991 13.062 8.94375 13.0496C8.96737 13.029 8.9925 13.0083 9.01837 12.9873C9.03063 12.9795 9.04252 12.9711 9.054 12.9622C9.4742 12.6258 9.93868 12.3488 10.4344 12.1391C11.1731 11.8234 11.9681 11.6606 12.7714 11.6606L12.789 11.6613L12.8081 11.6602C13.5977 11.6605 14.3794 11.8168 15.1083 12.1202C15.8373 12.4236 16.4991 12.868 17.0557 13.428C17.3148 13.6876 17.5495 13.9704 17.757 14.2728C16.6691 14.7277 15.9026 15.8025 15.9026 17.0535C15.9021 17.4719 15.9898 17.8858 16.1599 18.2681ZM18.915 19.3166C17.6674 19.3166 16.6522 18.3015 16.6522 17.0538C16.6522 15.8062 17.6674 14.7911 18.915 14.7911C20.163 14.7911 21.1781 15.8062 21.1781 17.0538C21.1781 18.3015 20.163 19.3166 18.915 19.3166Z" fill="#430750"/>
    <path d="M20.0884 16.6783H19.29V15.8799C19.29 15.7804 19.2505 15.685 19.1802 15.6147C19.1099 15.5444 19.0145 15.5049 18.915 15.5049C18.8156 15.5049 18.7202 15.5444 18.6498 15.6147C18.5795 15.685 18.54 15.7804 18.54 15.8799V16.6783H17.7416C17.6422 16.6783 17.5468 16.7178 17.4765 16.7881C17.4061 16.8584 17.3666 16.9538 17.3666 17.0533C17.3666 17.1527 17.4061 17.2481 17.4765 17.3184C17.5468 17.3887 17.6422 17.4283 17.7416 17.4283H18.54V18.2266C18.54 18.3261 18.5795 18.4215 18.6498 18.4918C18.7202 18.5621 18.8156 18.6016 18.915 18.6016C19.0145 18.6016 19.1099 18.5621 19.1802 18.4918C19.2505 18.4215 19.29 18.3261 19.29 18.2266V17.4283H20.0884C20.1878 17.4283 20.2832 17.3887 20.3536 17.3184C20.4239 17.2481 20.4634 17.1527 20.4634 17.0533C20.4634 16.9538 20.4239 16.8584 20.3536 16.7881C20.2832 16.7178 20.1878 16.6783 20.0884 16.6783Z" fill="#430750"/>
</svg>
