<svg width="49" height="48" viewBox="0 0 49 48" fill="none" xmlns="http://www.w3.org/2000/svg">
    <ellipse cx="24.3508" cy="24" rx="24.2105" ry="24" fill="#EF308D"/>
    <path d="M23 19.5C23 21.1569 21.6569 22.5 20 22.5C18.3431 22.5 17 21.1569 17 19.5C17 17.8431 18.3431 16.5 20 16.5C21.6569 16.5 23 17.8431 23 19.5Z" fill="white"/>
    <path d="M31 19.5C31 21.1569 29.6569 22.5 28 22.5C26.3431 22.5 25 21.1569 25 19.5C25 17.8431 26.3431 16.5 28 16.5C29.6569 16.5 31 17.8431 31 19.5Z" fill="white"/>
    <path d="M26.9291 30.5C26.9758 30.1734 27 29.8395 27 29.5C27 27.8648 26.4393 26.3606 25.4998 25.1691C26.2352 24.7435 27.0892 24.5 28 24.5C30.7614 24.5 33 26.7386 33 29.5V30.5H26.9291Z" fill="white"/>
    <path d="M20 24.5C22.7614 24.5 25 26.7386 25 29.5V30.5H15V29.5C15 26.7386 17.2386 24.5 20 24.5Z" fill="white"/>
</svg>
