<svg width="30" height="30" viewBox="0 0 30 30" fill="none" xmlns="http://www.w3.org/2000/svg">
    <path d="M3.75 15L6.25 12.5M6.25 12.5L15 3.75L23.75 12.5M6.25 12.5V25C6.25 25.6904 6.80964 26.25 7.5 26.25H11.25M23.75 12.5L26.25 15M23.75 12.5V25C23.75 25.6904 23.1904 26.25 22.5 26.25H18.75M11.25 26.25C11.9404 26.25 12.5 25.6904 12.5 25V20C12.5 19.3096 13.0596 18.75 13.75 18.75H16.25C16.9404 18.75 17.5 19.3096 17.5 20V25C17.5 25.6904 18.0596 26.25 18.75 26.25M11.25 26.25H18.75" stroke="#FABFDC" stroke-width="2" stroke-linecap="round" stroke-linejoin="round"/>
</svg>
