<svg width="30" height="30" viewBox="0 0 30 30" fill="none" xmlns="http://www.w3.org/2000/svg">
    <path d="M16.0607 3.43934C15.4749 2.85355 14.5251 2.85355 13.9393 3.43934L3.43934 13.9393C2.85355 14.5251 2.85355 15.4749 3.43934 16.0607C4.02513 16.6464 4.97487 16.6464 5.56066 16.0607L6 15.6213V25.5C6 26.3284 6.67157 27 7.5 27H10.5C11.3284 27 12 26.3284 12 25.5V22.5C12 21.6716 12.6716 21 13.5 21H16.5C17.3284 21 18 21.6716 18 22.5V25.5C18 26.3284 18.6716 27 19.5 27H22.5C23.3284 27 24 26.3284 24 25.5V15.6213L24.4393 16.0607C25.0251 16.6464 25.9749 16.6464 26.5607 16.0607C27.1464 15.4749 27.1464 14.5251 26.5607 13.9393L16.0607 3.43934Z" fill="#FABFDC"/>
</svg>
