<svg width="25" height="24" viewBox="0 0 25 24" fill="none" xmlns="http://www.w3.org/2000/svg">
    <path d="M19.6197 15.1898C19.957 14.7596 20.1188 14.2984 20.0982 13.8234C20.0775 13.3002 19.8435 12.8906 19.6507 12.6393C19.8744 12.0817 19.9605 11.204 19.2136 10.5225C18.6663 10.0234 17.737 9.79971 16.4497 9.86166C15.5444 9.90297 14.7872 10.0716 14.7562 10.0785H14.7528C14.5807 10.1095 14.3983 10.1473 14.2124 10.1887C14.1986 9.96836 14.2365 9.42109 14.6426 8.18887C15.1245 6.72259 15.097 5.60051 14.5532 4.85016C13.9818 4.06196 13.0697 4 12.8012 4C12.5431 4 12.3056 4.1067 12.1369 4.30289C11.7548 4.74691 11.7996 5.56609 11.8478 5.94471C11.3934 7.16316 10.1199 10.1508 9.04257 10.9803C9.02192 10.9941 9.00471 11.0113 8.9875 11.0285C8.67084 11.3624 8.45744 11.7238 8.31288 12.0404C8.1098 11.9303 7.87919 11.8683 7.63137 11.8683H5.53177C4.74012 11.8683 4.09991 12.512 4.09991 13.3002V18.8934C4.09991 19.685 4.74356 20.3252 5.53177 20.3252H7.63137C7.9377 20.3252 8.22339 20.2289 8.45744 20.0636L9.2663 20.16C9.39021 20.1772 11.5931 20.456 13.8544 20.4113C14.264 20.4423 14.6495 20.4595 15.0075 20.4595C15.6236 20.4595 16.1606 20.4113 16.608 20.3149C17.6613 20.0912 18.3806 19.6437 18.7455 18.9863C19.0243 18.4838 19.0243 17.9847 18.9795 17.668C19.6645 17.0485 19.7849 16.3635 19.7608 15.8817C19.7471 15.6029 19.6851 15.3654 19.6197 15.1898ZM5.53177 19.3959C5.25297 19.3959 5.02924 19.1687 5.02924 18.8934V13.2967C5.02924 13.0179 5.25641 12.7942 5.53177 12.7942H7.63137C7.91017 12.7942 8.1339 13.0214 8.1339 13.2967V18.8899C8.1339 19.1687 7.90673 19.3925 7.63137 19.3925H5.53177V19.3959ZM18.7386 14.7871C18.594 14.9386 18.5665 15.1692 18.6766 15.3482C18.6766 15.3516 18.8178 15.5925 18.835 15.923C18.8591 16.3739 18.6422 16.7731 18.1879 17.1139C18.0261 17.2378 17.9607 17.4512 18.0295 17.6439C18.0295 17.6474 18.1775 18.1017 17.9366 18.532C17.706 18.945 17.1931 19.241 16.4153 19.4062C15.7923 19.5405 14.9455 19.5646 13.9061 19.482H13.8579C11.6447 19.5301 9.40742 19.241 9.38333 19.2376H9.37989L9.03225 19.1963C9.0529 19.0999 9.06323 18.9966 9.06323 18.8934V13.2967C9.06323 13.1487 9.03913 13.0042 8.99783 12.8699C9.05978 12.6393 9.23188 12.1265 9.63803 11.6893C11.1835 10.464 12.6945 6.33021 12.7599 6.15123C12.7874 6.07895 12.7943 5.99978 12.7805 5.92062C12.722 5.53512 12.7427 5.06357 12.8253 4.92245C13.0077 4.92589 13.4999 4.97752 13.7959 5.38711C14.147 5.87243 14.1332 6.7398 13.7546 7.88942C13.1764 9.64138 13.1282 10.5638 13.586 10.97C13.8131 11.1731 14.116 11.1834 14.3363 11.1042C14.5463 11.056 14.7459 11.0147 14.9352 10.9837C14.949 10.9803 14.9662 10.9769 14.98 10.9734C16.0366 10.7428 17.9297 10.6017 18.5871 11.2006C19.1447 11.71 18.7489 12.3846 18.7042 12.4569C18.5768 12.6497 18.6147 12.9009 18.7868 13.0558C18.7902 13.0592 19.1516 13.4 19.1688 13.8578C19.1826 14.1641 19.038 14.4773 18.7386 14.7871Z" fill="#430750"/>
</svg>
