<svg width="167" height="150" viewBox="0 0 167 150" fill="none" xmlns="http://www.w3.org/2000/svg">
<g clip-path="url(#clip0_10_704)">
<path d="M70.2462 22.4537C70.4833 22.6664 70.7204 22.8792 70.9648 23.0983C70.9648 23.282 70.9648 23.4657 70.9648 23.6549C71.1242 23.7239 71.2837 23.7928 71.448 23.8638C72.1768 24.2661 72.6649 24.7317 73.2517 25.3221C73.4801 25.5505 73.7084 25.7789 73.9437 26.0142C74.1875 26.2609 74.4314 26.5076 74.6826 26.7618C74.9343 27.0143 75.1859 27.2667 75.4452 27.5269C76.1126 28.1963 76.7783 28.8675 77.4436 29.539C78.1235 30.2246 78.805 30.9086 79.4864 31.5928C80.8217 32.9343 82.1554 34.2773 83.4879 35.6215C84.4854 35.1995 85.1119 34.6155 85.8663 33.8452C86.2402 33.466 86.2402 33.466 86.6215 33.079C86.7537 32.9437 86.8859 32.8083 87.022 32.6688C87.4402 32.241 87.8603 31.8152 88.281 31.3899C89.4769 30.1804 90.6698 28.968 91.8598 27.7528C98.1972 21.286 98.1972 21.286 101.577 19.2022C101.817 19.0426 102.058 18.8829 102.305 18.7184C109.272 14.119 118.397 13.118 126.469 14.5804C129.583 15.2406 132.429 16.3521 135.25 17.8108C135.426 17.8994 135.602 17.988 135.784 18.0793C138.411 19.4168 140.609 21.1087 142.764 23.0983C143.031 23.3423 143.298 23.5862 143.573 23.8376C149.02 29.0392 153.01 36.8196 153.389 44.3984C153.541 53.6504 153.541 53.6504 152.226 57.6067C152.139 57.8827 152.139 57.8827 152.05 58.1644C151.348 60.347 150.432 62.4184 149.391 64.4597C149.26 64.7234 149.26 64.7234 149.127 64.9924C146.858 69.2581 143.19 72.5927 139.79 75.9392C139.321 76.404 138.852 76.8689 138.384 77.334C137.249 78.4599 136.112 79.5834 134.972 80.705C134.575 79.9102 134.89 79.3959 135.109 78.5747C135.952 74.676 135.291 70.4847 133.407 67.0165C130.369 62.3422 125.11 59.5922 119.767 58.4133C112.406 56.9961 105.192 58.1105 98.5158 61.5028C98.0939 61.7089 98.0939 61.7089 97.6635 61.9191C95.3511 63.1043 93.3704 64.6547 91.5584 66.5121C91.8411 66.5964 92.1238 66.6807 92.4151 66.7675C102.536 69.8272 110.058 75.6708 115.161 84.9664C117.014 88.4878 118.154 92.3322 118.553 96.2894C118.599 96.7129 118.599 96.7129 118.645 97.145C118.823 98.9967 118.886 100.831 118.831 102.69C118.823 102.988 118.815 103.285 118.807 103.591C118.376 112.666 113.737 121.359 107.107 127.433C103.342 130.778 98.6445 133.571 93.7848 134.972C93.6112 135.023 93.4375 135.073 93.2586 135.126C90.0124 136.028 86.8027 136.184 83.4532 136.172C83.255 136.172 83.0568 136.171 82.8526 136.17C79.6544 136.151 76.6453 136.033 73.5737 135.094C73.3343 135.021 73.0949 134.949 72.8483 134.874C70.5049 134.131 68.3776 133.103 66.2338 131.911C65.9712 131.767 65.7086 131.624 65.438 131.476C57.3473 126.853 51.6319 118.874 49.1709 109.978C49.0084 109.313 48.8514 108.646 48.7013 107.978C48.6071 107.578 48.6071 107.578 48.5111 107.171C47.9688 104.501 48.0734 101.783 48.1447 99.0724C48.1571 98.5488 48.1571 98.5488 48.1697 98.0146C48.5922 89.0813 53.2296 80.7153 59.6406 74.6521C64.6974 70.0803 70.8171 67.5001 77.3655 65.9555C71.5258 60.722 63.9869 57.9941 56.1635 58.0391C55.5382 58.0415 54.9136 58.0335 54.2884 58.0247C48.0564 57.9944 42.2199 60.434 37.6511 64.6977C35.036 67.5712 34.0737 70.8035 34.1083 74.6C34.109 74.9046 34.1097 75.2092 34.1104 75.523C34.1473 77.7508 34.4637 79.7209 35.1269 81.8421C35.3432 82.6531 35.3432 82.6531 35.0649 83.4879C33.5539 81.984 32.044 80.479 30.5349 78.9732C30.022 78.4617 29.5089 77.9505 28.9956 77.4396C28.255 76.7024 27.5154 75.9644 26.7759 75.2261C26.5486 75.0002 26.3212 74.7743 26.087 74.5415C24.9101 73.3647 23.7749 72.1692 22.6929 70.9043C22.2431 70.3846 21.7767 69.8834 21.3068 69.382C15.3588 62.5424 13.3275 53.068 13.9147 44.2486C14.9407 35.2674 19.5938 26.8672 26.6466 21.2199C39.8472 11.0367 57.5128 12.2722 70.2462 22.4537Z" fill="#440851"/>
<path d="M45.6401 14.193C55.1665 13.8486 63.8093 16.679 70.9647 23.0983C70.9647 23.282 70.9647 23.4657 70.9647 23.6549C71.1242 23.7239 71.2837 23.7928 71.448 23.8638C72.1768 24.2661 72.6649 24.7317 73.2517 25.3221C73.4801 25.5505 73.7084 25.7789 73.9437 26.0142C74.1875 26.2609 74.4313 26.5076 74.6826 26.7618C74.9343 27.0143 75.1859 27.2667 75.4452 27.5269C76.1126 28.1963 76.7783 28.8675 77.4436 29.539C78.1235 30.2246 78.805 30.9086 79.4864 31.5928C80.8217 32.9343 82.1554 34.2773 83.4879 35.6215C84.4854 35.1995 85.1119 34.6155 85.8663 33.8452C86.1155 33.5924 86.3648 33.3396 86.6215 33.079C86.8198 32.876 86.8198 32.876 87.022 32.6688C87.4402 32.241 87.8603 31.8152 88.281 31.3899C89.4769 30.1804 90.6698 28.968 91.8598 27.7528C98.1972 21.286 98.1972 21.286 101.577 19.2022C101.817 19.0426 102.058 18.8829 102.305 18.7184C109.272 14.119 118.397 13.118 126.469 14.5804C129.583 15.2406 132.429 16.3521 135.25 17.8108C135.426 17.8994 135.602 17.988 135.784 18.0793C138.411 19.4168 140.609 21.1087 142.764 23.0983C143.031 23.3423 143.298 23.5862 143.573 23.8376C149.02 29.0392 153.01 36.8196 153.389 44.3984C153.541 53.6504 153.541 53.6504 152.226 57.6067C152.139 57.8827 152.139 57.8827 152.05 58.1644C151.348 60.347 150.432 62.4184 149.391 64.4597C149.26 64.7234 149.26 64.7234 149.127 64.9924C146.858 69.2581 143.19 72.5927 139.79 75.9392C139.321 76.404 138.852 76.8689 138.384 77.334C137.249 78.4599 136.112 79.5834 134.972 80.705C134.575 79.9102 134.89 79.3959 135.109 78.5747C135.952 74.676 135.291 70.4847 133.407 67.0165C130.369 62.3422 125.11 59.5922 119.767 58.4133C112.406 56.9961 105.192 58.1105 98.5158 61.5028C98.0939 61.7089 98.0939 61.7089 97.6635 61.9191C95.6044 62.9744 93.6562 64.3141 92.0944 66.0348C90.7821 66.804 89.5631 66.5147 88.0972 66.3207C87.6696 66.285 87.6696 66.285 87.2335 66.2484C85.1997 65.9944 85.1997 65.9944 84.3516 65.1546C83.9175 64.5123 83.5586 63.8644 83.2096 63.1725C82.9936 62.8068 82.7755 62.4422 82.5552 62.0789C82.3438 61.7132 82.133 61.3472 81.9225 60.981C80.8612 59.1556 79.7627 57.3569 78.6352 55.5717C78.4938 55.3473 78.3524 55.123 78.2068 54.8918C77.4541 53.7011 77.4541 53.7011 76.6251 52.5635C76.2523 52.0408 76.2523 52.0408 76.2523 51.4842C76.0686 51.4842 75.885 51.4842 75.6957 51.4842C75.6441 51.7138 75.5924 51.9434 75.5392 52.18C74.6258 54.4039 72.7822 55.944 70.6865 57.0501C68.4044 57.9772 65.8592 57.8331 63.5574 57.061C61.239 56.05 59.4028 54.1608 58.3372 51.8843C57.4947 49.5719 57.5172 46.8252 58.4318 44.5323C59.7491 41.9624 61.8235 40.1691 64.564 39.2393C64.954 39.1769 65.3456 39.1237 65.7381 39.0795C66.0853 39.0404 66.4326 39.0013 66.7904 38.961C63.8068 35.0082 60.6413 31.2051 57.4276 27.4382C57.0385 26.9808 56.6517 26.5214 56.2652 26.0617C54.4131 23.8686 52.4808 21.7643 50.5091 19.6784C48.8277 17.8987 47.2017 16.0788 45.6401 14.193Z" fill="#EE308D"/>
<path d="M88.4972 67.0687C89.1401 67.0687 89.7829 67.0687 90.4453 67.0687C90.5658 67.3384 90.6863 67.6082 90.8105 67.8862C91.1971 68.8156 91.1971 68.8156 92.115 69.0167C92.5019 69.7904 92.716 70.5662 92.9499 71.3996C93.1753 72.3065 93.1753 72.3065 93.5179 72.8776C93.849 73.6119 93.8647 74.1861 93.8805 74.9902C93.8887 75.2817 93.8969 75.5732 93.9055 75.8735C93.9116 76.1764 93.9176 76.4794 93.9239 76.7915C93.9361 77.3913 93.9505 77.991 93.9674 78.5907C93.9726 78.8561 93.9778 79.1215 93.9832 79.395C94.1423 80.8952 94.7539 81.779 95.7676 82.8618C96.846 84.0208 96.846 84.0208 96.846 84.3228C96.6143 84.317 96.3827 84.3112 96.144 84.3052C95.2835 84.2862 94.4232 84.2722 93.5627 84.2617C93.0074 84.2533 92.4522 84.2392 91.8971 84.225C91.5482 84.2214 91.1993 84.2178 90.8399 84.2141C90.5178 84.2083 90.1957 84.2025 89.8639 84.1965C89.0271 84.2454 89.0271 84.2454 88.5247 84.8525C88.1772 85.4058 88.1772 85.4058 88.2189 85.9752C88.616 86.7941 89.2404 87.3078 89.8887 87.9406C90.0074 88.1602 90.1262 88.3797 90.2485 88.6059C90.8356 89.5034 91.49 89.9332 92.3759 90.5323C93.8073 91.5505 94.582 92.4154 95.1763 94.0631C95.3901 94.504 95.6047 94.9447 95.8198 95.385C96.1419 96.0508 96.3075 96.4134 96.2209 97.1515C95.9449 97.848 95.4626 98.3022 94.9708 98.856C94.44 99.6037 94.2496 100.418 93.9924 101.29C93.7166 102.041 93.2494 102.427 92.6716 102.968C92.5396 103.296 92.4076 103.623 92.2716 103.96C91.7856 105.029 91.444 105.212 90.4453 105.751C90.4453 106.027 90.4453 106.302 90.4453 106.586C90.6289 106.678 90.8126 106.77 91.0019 106.865C91.0094 107.311 91.0148 107.757 91.0192 108.204C91.0225 108.452 91.0257 108.701 91.029 108.957C91.0019 109.648 91.0019 109.648 90.7236 110.482C90.9991 110.574 91.2746 110.666 91.5584 110.761C91.5792 110.986 91.6001 111.211 91.6215 111.442C91.8741 113.495 92.1391 114.189 93.7848 115.492C93.9294 116.083 93.9294 116.083 94.0109 116.779C94.3661 119.186 96.2406 120.899 98.0983 122.327C98.7648 122.874 99.034 123.143 99.2626 123.982C99.3333 124.728 99.3333 124.728 99.3409 125.418C99.3249 126.066 99.3249 126.066 99.5072 126.668C99.6289 127.18 99.6289 127.18 99.368 127.806C98.6633 128.404 98.1511 128.405 97.2428 128.387C96.5677 128.293 96.5677 128.293 95.5484 128.019C94.419 127.734 93.3305 127.629 92.165 127.57C91.9621 127.559 91.7591 127.549 91.55 127.537C90.892 127.503 90.2338 127.472 89.5756 127.441C89.1175 127.418 88.6595 127.394 88.2014 127.371C84.9067 127.206 81.611 127.082 78.3133 126.997C76.7691 126.954 75.2701 126.892 73.7477 126.623C73.7477 126.807 73.7477 126.991 73.7477 127.18C72.6034 127.187 71.4592 127.192 70.3149 127.195C69.9253 127.197 69.5358 127.199 69.1463 127.201C68.5874 127.204 68.0286 127.206 67.4698 127.207C67.1331 127.209 66.7965 127.21 66.4496 127.212C65.6772 127.18 65.6772 127.18 65.3989 126.902C65.3268 125.581 65.4239 124.527 65.7641 123.249C65.9414 122.552 65.9414 122.552 65.9555 121.892C65.5115 121.32 65.0468 120.763 64.564 120.223C64.4847 119.548 64.5085 118.938 64.5694 118.262C64.6268 117.651 64.6268 117.651 64.0074 117.161C63.6975 117.207 63.3875 117.253 63.0682 117.301C62.0594 117.44 62.0594 117.44 61.4158 117.266C60.7765 116.745 60.6144 116.278 60.3896 115.492C60.3896 115.124 60.3896 114.757 60.3896 114.378C59.7468 114.47 59.1039 114.562 58.4416 114.657C58.1981 114.1 58.1981 114.1 58.1633 113.265C58.5068 112.814 58.5068 112.814 58.9634 112.309C59.8616 111.234 59.9116 110.512 59.9026 109.126C59.9409 107.435 60.2909 106.708 61.4854 105.508C62.7681 104.36 62.7681 104.36 63.4508 104.36C63.4508 104.176 63.4508 103.993 63.4508 103.803C63.6173 103.74 63.7837 103.677 63.9552 103.612C64.7264 103.149 64.942 102.623 65.3989 101.855C66.6324 100.742 66.6324 100.742 67.3469 100.742C67.3469 100.926 67.3469 101.109 67.3469 101.299C67.9898 101.299 68.6327 101.299 69.295 101.299C69.295 101.023 69.295 100.748 69.295 100.464C69.9559 100.655 69.9559 100.655 70.6865 101.02C71.0517 101.751 71.0517 101.751 71.243 102.412C71.5186 102.412 71.7941 102.412 72.0779 102.412C72.0779 102.779 72.0779 103.147 72.0779 103.525C73.4608 103.211 73.4608 103.211 74.5826 102.412C74.6629 102.131 74.7433 101.849 74.8261 101.56C74.9294 101.29 75.0327 101.02 75.1391 100.742C75.7305 100.499 75.7305 100.499 76.2523 100.464C76.281 100.137 76.3097 99.8095 76.3393 99.4724C76.5158 98.0527 76.887 96.7679 77.9221 95.7329C78.1118 94.9934 78.1118 94.9934 78.2352 94.1675C78.2818 93.8884 78.3284 93.6093 78.3765 93.3217C78.4271 92.9999 78.4271 92.9999 78.4787 92.6716C78.846 92.6716 79.2134 92.6716 79.5918 92.6716C79.5918 92.3961 79.5918 92.1206 79.5918 91.8368C80.051 91.8368 80.5102 91.8368 80.9833 91.8368C80.9833 91.5612 80.9833 91.2857 80.9833 91.0019C81.167 91.0019 81.3507 91.0019 81.5399 91.0019C81.5341 90.778 81.5284 90.5542 81.5225 90.3235C81.5399 89.6104 81.5399 89.6104 81.8182 89.3321C81.8411 88.9762 81.8641 88.6204 81.8878 88.2537C81.9541 87.6374 81.9541 87.6374 82.0965 87.1058C82.3203 86.9738 82.5442 86.8417 82.7748 86.7057C83.5308 86.3524 83.5308 86.3524 83.664 85.7056C83.7418 85.2701 83.8088 84.8325 83.863 84.3935C84.0445 83.7663 84.0445 83.7663 84.5924 83.2325C85.297 82.5103 85.3764 82.001 85.5577 81.0181C85.9008 79.5075 86.2032 78.6599 87.384 77.6438C88.3059 77.4003 88.3059 77.4003 89.0538 77.3655C89.0538 77.1818 89.0538 76.9982 89.0538 76.8089C90.5599 75.6958 90.5599 75.6958 91.2801 75.6958C91.2342 75.3571 91.1883 75.0185 91.141 74.6695C91.0302 73.797 91.0019 72.9574 91.0019 72.0779C90.921 71.7041 90.8322 71.3315 90.7236 70.9648C90.0807 70.9648 89.4378 70.9648 88.7755 70.9648C88.6837 69.6791 88.5918 68.3933 88.4972 67.0687Z" fill="#FCFCFC"/>
<path d="M107.277 40.4188C109.401 41.9039 110.855 43.7709 111.488 46.3304C111.939 49.2705 111.408 51.6016 109.734 54.0584C108.778 55.2544 107.628 56.0189 106.308 56.7718C105.877 57.0301 105.877 57.0301 105.438 57.2936C103.467 58.0629 100.749 57.9596 98.8115 57.1544C98.4273 56.9472 98.0499 56.7267 97.6809 56.4935C97.3903 56.3165 97.3903 56.3165 97.0939 56.1359C94.9704 54.7029 93.7219 52.7069 93.0804 50.2439C92.5599 47.4203 93.2002 45.2095 94.7577 42.843C97.8037 38.8951 102.97 37.8917 107.277 40.4188Z" fill="#FEFDFD"/>
<path d="M67.0165 39.1002C67.237 39.1014 67.4575 39.1026 67.6848 39.1038C69.5093 39.1567 70.8568 39.5598 72.3562 40.6308C72.6547 40.8317 72.9532 41.0326 73.2607 41.2396C75.1773 43.1998 76.3203 45.5656 76.3741 48.3187C76.3276 50.9108 75.6015 53.0363 73.8173 54.9455C72.2868 56.3316 70.5641 57.4779 68.4601 57.6067C68.2546 57.6207 68.049 57.6347 67.8372 57.6491C65.007 57.7591 62.7638 57.0173 60.6679 55.1021C58.9923 53.5196 58.0218 51.7239 57.7882 49.4144C57.7121 46.3413 58.2608 44.0167 60.3896 41.744C62.3981 39.9396 64.3262 39.0782 67.0165 39.1002Z" fill="#FEFDFE"/>
<path d="M64.0074 103.525C64.0074 104.36 64.0074 104.36 63.2965 105.152C62.9905 105.453 62.6824 105.751 62.3724 106.047C62.2178 106.198 62.0632 106.349 61.9039 106.504C61.4935 106.904 61.0808 107.302 60.6679 107.699C60.4842 107.883 60.3006 108.067 60.1113 108.256C60.2416 106.969 60.7052 106.412 61.6245 105.525C61.848 105.305 62.0715 105.085 62.3018 104.859C62.8942 104.36 62.8942 104.36 63.4508 104.36C63.4508 104.176 63.4508 103.993 63.4508 103.803C63.6345 103.712 63.8182 103.62 64.0074 103.525Z" fill="#D5C7D7"/>
<path d="M91.8367 104.36C91.9286 104.635 92.0204 104.911 92.115 105.195C91.9313 105.315 91.7477 105.436 91.5584 105.56C91.3748 105.715 91.1911 105.87 91.0018 106.03C91.0018 106.305 91.0018 106.581 91.0018 106.865C90.7263 106.773 90.4508 106.681 90.167 106.586C90.3265 105.788 90.4067 105.512 91.0018 104.917C91.2774 104.917 91.5529 104.917 91.8367 104.917C91.8367 104.733 91.8367 104.549 91.8367 104.36Z" fill="#6E4078"/>
</g>
<defs>
<clipPath id="clip0_10_704">
<rect width="166.976" height="150" fill="white"/>
</clipPath>
</defs>
</svg>
