<svg width="49" height="48" viewBox="0 0 49 48" fill="none" xmlns="http://www.w3.org/2000/svg">
    <ellipse cx="24.4211" cy="24" rx="24.2105" ry="24" fill="#EF308D"/>
    <g clip-path="url(#clip0_296_1981)">
        <path d="M25 36.5C24.6583 36.5 24.3289 36.3609 24.0722 36.1081C23.1026 35.1552 22.1679 34.2597 21.3432 33.4698L21.339 33.4657C18.921 31.1497 16.8331 29.1497 15.3803 27.1794C13.7564 24.9769 13 22.8885 13 20.6071C13 18.3905 13.6762 16.3456 14.9039 14.8487C16.1463 13.3341 17.851 12.5 19.7046 12.5C21.09 12.5 22.3587 12.9923 23.4755 13.9631C24.039 14.4531 24.5499 15.0529 25 15.7524C25.4502 15.0529 25.9609 14.4531 26.5247 13.9631C27.6415 12.9923 28.9102 12.5 30.2956 12.5C32.149 12.5 33.8539 13.3341 35.0963 14.8487C36.324 16.3456 37 18.3905 37 20.6071C37 22.8884 36.2437 24.9769 34.6198 27.1792C33.167 29.1497 31.0793 31.1495 28.6617 33.4653C27.8355 34.2565 26.8994 35.1534 25.9276 36.1085C25.6708 36.361 25.3412 36.5001 25 36.5ZM19.7046 14.0802C18.2483 14.0802 16.9106 14.7335 15.9374 15.9197C14.9497 17.124 14.4057 18.7886 14.4057 20.6071C14.4057 22.5259 15.0401 24.2419 16.4627 26.1712C17.8376 28.036 19.8827 29.9949 22.2507 32.2632L22.255 32.2673C23.0828 33.0602 24.0213 33.9592 24.998 34.9192C25.9805 33.9574 26.9204 33.057 27.7499 32.2628C30.1176 29.9945 32.1625 28.036 33.5375 26.1712C34.9598 24.2419 35.5943 22.5259 35.5943 20.6071C35.5943 18.7885 35.0503 17.1239 34.0626 15.9197C33.0896 14.7335 31.7517 14.0802 30.2956 14.0802C29.2288 14.0802 28.2494 14.4614 27.3846 15.213C26.6139 15.8831 26.077 16.7302 25.7622 17.323C25.6004 17.6278 25.3155 17.8097 25 17.8097C24.6845 17.8097 24.3996 17.6278 24.2377 17.323C23.9232 16.7302 23.3863 15.8831 22.6154 15.213C21.7506 14.4614 20.7712 14.0802 19.7046 14.0802Z" fill="white"/>
    </g>
    <defs>
        <clipPath id="clip0_296_1981">
            <rect width="23.7" height="23.7" fill="white" transform="translate(13 12.5)"/>
        </clipPath>
    </defs>
</svg>
