<svg width="30" height="30" viewBox="0 0 30 30" fill="none" xmlns="http://www.w3.org/2000/svg">
    <path d="M22.78 12.3101C22.83 11.9201 22.86 11.5101 22.86 11.0901C22.86 8.33009 20.64 6.1001 17.9 6.1001C16.28 6.1001 14.84 6.88009 13.93 8.09009C13.03 6.88009 11.59 6.1001 9.95999 6.1001C7.21999 6.1001 5 8.33009 5 11.0901C5 17.3501 10.79 21.0301 13.38 21.9201C13.68 22.0301 14.18 22.0301 14.48 21.9201C14.53 21.9001 14.58 21.8901 14.63 21.8601M22.78 12.3101C22.32 12.1101 21.82 12.0001 21.29 12.0001C20.07 12.0001 18.99 12.5901 18.32 13.4901C17.64 12.5901 16.56 12.0001 15.34 12.0001C13.29 12.0001 11.63 13.6701 11.63 15.7401C11.63 18.4201 13.05 20.4701 14.63 21.8601M22.78 12.3101C24.09 12.8901 25 14.2001 25 15.7401C25 20.4201 20.67 23.1801 18.73 23.8401C18.5 23.9201 18.13 23.9201 17.9 23.8401C17.07 23.5601 15.8 22.8901 14.63 21.8601" stroke="#FABFDC" stroke-width="2" stroke-linecap="round" stroke-linejoin="round"/>
</svg>
