<svg width="17" height="16" viewBox="0 0 17 16" fill="none" xmlns="http://www.w3.org/2000/svg">
    <path d="M14.9 2.4001C14.9 2.16043 14.7925 1.93338 14.6072 1.78143C14.4218 1.62948 14.1781 1.56864 13.9431 1.61564L5.94308 3.21564C5.56914 3.29043 5.29998 3.61876 5.29998 4.0001V11.2911C5.04975 11.2322 4.78048 11.2001 4.49998 11.2001C3.17449 11.2001 2.09998 11.9164 2.09998 12.8001C2.09998 13.6838 3.17449 14.4001 4.49998 14.4001C5.82546 14.4001 6.89997 13.6838 6.89998 12.8001V6.25594L13.3 4.97594V9.69114C13.0498 9.63218 12.7805 9.6001 12.5 9.6001C11.1745 9.6001 10.1 10.3164 10.1 11.2001C10.1 12.0838 11.1745 12.8001 12.5 12.8001C13.8255 12.8001 14.9 12.0838 14.9 11.2001V2.4001Z" fill="#333333"/>
</svg>
