<svg width="32" height="32" viewBox="0 0 32 32" fill="none" xmlns="http://www.w3.org/2000/svg">
    <path d="M12 22.6667H5.33335L7.2066 20.7934C7.71462 20.2854 8.00002 19.5964 8.00002 18.8779V14.6667C8.00002 11.1834 10.2262 8.22012 13.3334 7.12189V6.66667C13.3334 5.19391 14.5273 4 16 4C17.4728 4 18.6667 5.19391 18.6667 6.66667V7.12189C21.7739 8.22012 24 11.1834 24 14.6667V18.8779C24 19.5964 24.2854 20.2854 24.7934 20.7934L26.6667 22.6667H20M12 22.6667V24C12 26.2091 13.7909 28 16 28C18.2092 28 20 26.2091 20 24V22.6667M12 22.6667H20" stroke="#333333" stroke-width="2" stroke-linecap="round" stroke-linejoin="round"/>
</svg>
