<svg width="16" height="16" viewBox="0 0 16 16" fill="none" xmlns="http://www.w3.org/2000/svg">
    <path fill-rule="evenodd" clip-rule="evenodd" d="M3.19998 3.9999C2.31632 3.9999 1.59998 4.71625 1.59998 5.5999V11.9999C1.59998 12.8836 2.31632 13.5999 3.19998 13.5999H12.8C13.6836 13.5999 14.4 12.8836 14.4 11.9999V5.5999C14.4 4.71625 13.6836 3.9999 12.8 3.9999H11.5313C11.3192 3.9999 11.1157 3.91562 10.9657 3.76559L10.0686 2.86853C9.76855 2.56847 9.36158 2.3999 8.93723 2.3999H7.06272C6.63837 2.3999 6.2314 2.56847 5.93135 2.86853L5.03429 3.76559C4.88426 3.91562 4.68078 3.9999 4.4686 3.9999H3.19998ZM7.99998 11.1999C9.32546 11.1999 10.4 10.1254 10.4 8.7999C10.4 7.47442 9.32546 6.3999 7.99998 6.3999C6.67449 6.3999 5.59998 7.47442 5.59998 8.7999C5.59998 10.1254 6.67449 11.1999 7.99998 11.1999Z" fill="#333333"/>
</svg>
