<svg width="24" height="24" viewBox="0 0 24 24" fill="none" xmlns="http://www.w3.org/2000/svg">
    <g clip-path="url(#clip0_84_2180)">
        <path d="M23.4818 0.842904L23.4818 0.843014L14.4818 23.343L14.4818 23.3431C14.4647 23.3858 14.4361 23.423 14.3993 23.4505C14.3625 23.4781 14.3187 23.4949 14.2729 23.4992C14.2271 23.5035 14.181 23.4951 14.1397 23.4749C14.0985 23.4547 14.0636 23.4235 14.0389 23.3848C14.0388 23.3847 14.0388 23.3847 14.0388 23.3846L13.6493 22.7704L13.6197 22.7237L13.6164 22.7205L8.87888 15.2743L8.81921 15.1805L8.72542 15.1209L1.3498 10.4282L1.34812 10.4249L1.2308 10.3505L0.615797 9.96045L0.615275 9.96012C0.576327 9.93549 0.544944 9.90057 0.524595 9.85923C0.504245 9.81788 0.495721 9.77171 0.499963 9.72582C0.504205 9.67993 0.521049 9.63611 0.548635 9.59919C0.57622 9.56227 0.613472 9.5337 0.656275 9.51663L1.24492 9.28221H1.24682L1.33623 9.24645L23.1567 0.517945L23.1568 0.517904C23.2023 0.499718 23.252 0.495266 23.3 0.5051C23.3479 0.514933 23.3919 0.538619 23.4265 0.573223L23.7801 0.21967L23.4265 0.573226C23.4611 0.607828 23.4848 0.651825 23.4946 0.699762C23.5045 0.747701 23.5 0.797471 23.4818 0.842904ZM9.53364 15.3731L9.86825 15.8991L10.3091 15.4583L21.4036 4.36371H21.5369L21.6624 4.049L22.3674 2.282L22.7992 1.19993L21.7174 1.63244L19.9504 2.33894L19.8551 2.37706L19.7825 2.44966L8.54147 13.6907L8.10064 14.1315L8.62667 14.4661L9.13367 14.7886L9.13396 14.7888C9.16497 14.8085 9.19126 14.8348 9.21096 14.8658L9.21114 14.8661L9.53364 15.3731Z" fill="#430750" stroke="#430750"/>
    </g>
    <defs>
        <clipPath id="clip0_84_2180">
            <rect width="24" height="24" fill="white"/>
        </clipPath>
    </defs>
</svg>
