<svg width="32" height="32" viewBox="0 0 32 32" fill="none" xmlns="http://www.w3.org/2000/svg">
    <path fill-rule="evenodd" clip-rule="evenodd" d="M13.6172 5.0737C14.2237 2.57569 17.7763 2.57569 18.3827 5.0737C18.7745 6.68738 20.6233 7.45317 22.0413 6.58914C24.2365 5.25159 26.7486 7.76368 25.411 9.95886C24.547 11.3769 25.3128 13.2257 26.9265 13.6174C29.4245 14.2239 29.4245 17.7765 26.9265 18.3829C25.3128 18.7747 24.547 20.6235 25.411 22.0415C26.7486 24.2367 24.2365 26.7488 22.0413 25.4113C20.6233 24.5472 18.7745 25.313 18.3827 26.9267C17.7763 29.4247 14.2237 29.4247 13.6172 26.9267C13.2255 25.313 11.3767 24.5472 9.95865 25.4113C7.76348 26.7488 5.25139 24.2367 6.58893 22.0415C7.45297 20.6235 6.68718 18.7747 5.07349 18.3829C2.57549 17.7765 2.57549 14.2239 5.07349 13.6174C6.68718 13.2257 7.45297 11.3769 6.58893 9.95886C5.25139 7.76368 7.76348 5.25159 9.95865 6.58914C11.3767 7.45317 13.2255 6.68738 13.6172 5.0737ZM16 20.8002C13.349 20.8002 11.2 18.6512 11.2 16.0002C11.2 13.3492 13.349 11.2002 16 11.2002C18.651 11.2002 20.8 13.3492 20.8 16.0002C20.8 18.6512 18.651 20.8002 16 20.8002Z" fill="#333333" stroke="#333333" stroke-width="0.5"/>
</svg>
