<svg width="25" height="24" viewBox="0 0 25 24" fill="none" xmlns="http://www.w3.org/2000/svg">
    <path d="M16.706 4.22416C16.7162 4.24112 16.7279 4.26171 16.7378 4.29085C16.7474 4.31919 16.7543 4.3521 16.7598 4.39441C16.7704 4.47761 16.777 4.61097 16.7814 4.8441C16.7902 5.31215 16.7902 6.20122 16.7902 7.94201V7.9454C16.7902 9.38317 16.7876 10.2803 16.7801 10.8379C16.7764 11.1165 16.7714 11.3114 16.7649 11.4469C16.7585 11.5797 16.7504 11.663 16.7382 11.7132L16.7381 11.7134C16.5651 12.4167 16.0606 12.9909 15.38 13.2557L15.3799 13.2558L15.1444 13.3472L15.1272 13.3538L15.1087 13.3539L11.5404 13.3715L7.99189 13.389L7.81746 13.4619C7.77392 13.481 7.65311 13.5542 7.48543 13.6641C7.32097 13.7718 7.11992 13.9091 6.92219 14.049C6.70506 14.2047 6.39394 14.4258 6.08027 14.6488C5.82037 14.8335 5.55872 15.0194 5.34732 15.1704L5.34704 15.1706L4.48923 15.7788L4.46325 15.7973H4.43139H4.23452C4.11255 15.7973 4.0062 15.7792 3.91272 15.7328C3.81824 15.6858 3.74526 15.614 3.68347 15.5203L3.68347 15.5203L3.68283 15.5193C3.65391 15.4743 3.63993 15.4264 3.63022 15.3193C3.6206 15.2132 3.61422 15.0345 3.60983 14.7174C3.60103 14.0815 3.60015 12.8756 3.60015 10.5469C3.60015 10.2637 3.60011 9.99639 3.60008 9.74407C3.59976 7.61502 3.5996 6.55297 3.62486 5.97757C3.63896 5.65632 3.66119 5.47777 3.69901 5.34697C3.72863 5.24451 3.76861 5.17121 3.81263 5.0905C3.825 5.06781 3.83769 5.04455 3.85055 5.01989C4.12477 4.49372 4.68064 4.07467 5.2677 3.94544L5.2685 3.94527C5.32445 3.93344 5.42841 3.92573 5.61291 3.91976C5.80077 3.91367 6.0802 3.90927 6.49342 3.9062C7.32007 3.90004 8.68544 3.89916 10.9318 3.90092H10.9318L16.3529 3.90795L16.3861 3.90799L16.4127 3.92795L16.5112 4.00178L16.5112 4.00174L16.5136 4.00369C16.5742 4.05216 16.66 4.14516 16.706 4.22416ZM16.706 4.22416C16.7058 4.22388 16.7056 4.22359 16.7054 4.22331L16.6199 4.27512L16.7065 4.22503C16.7063 4.22474 16.7061 4.22445 16.706 4.22416ZM15.4363 11.541L15.436 11.5417C15.342 11.7427 15.2217 11.8779 15.0435 11.9829L15.4363 11.541ZM15.4363 11.541C15.4515 11.5092 15.4616 11.4874 15.4704 11.425C15.4801 11.3567 15.4872 11.2442 15.4925 11.0331C15.503 10.614 15.5057 9.82468 15.5109 8.26575L15.5109 8.25092L15.5212 5.1802H10.6189C8.2807 5.18196 7.02814 5.18372 6.33893 5.19206C5.99394 5.19624 5.79218 5.20205 5.66665 5.21015C5.54231 5.21818 5.49925 5.22816 5.46915 5.23813C5.27824 5.30507 5.16488 5.39087 5.04671 5.55377C5.03378 5.5716 5.02259 5.58641 5.01278 5.5994C4.9788 5.64441 4.96121 5.66769 4.9445 5.71931C4.92127 5.79106 4.9033 5.91357 4.8912 6.17985C4.8694 6.65949 4.86735 7.56944 4.86322 9.40375C4.8628 9.59215 4.86235 9.7903 4.86186 9.99874L4.86186 9.99876L4.85183 13.9249C5.21126 13.6609 6.77913 12.552 6.91372 12.4692L6.96613 12.5543L6.9128 12.4697C7.08535 12.361 7.3481 12.2524 7.64392 12.1633L7.64392 12.1633L7.64529 12.1629C7.74665 12.1339 7.90837 12.1194 8.42122 12.1085C8.93984 12.0975 9.8293 12.0905 11.3987 12.0817L11.3988 12.0817L14.905 12.0642L15.0434 11.983L15.4363 11.541Z" fill="#430750" stroke="#430750" stroke-width="0.2"/>
    <path d="M13.8848 7.87149L13.9448 7.95149C13.931 7.96179 13.9119 7.97587 13.8839 7.98783C13.857 7.99932 13.8263 8.00707 13.7881 8.01299C13.7137 8.02453 13.5939 8.03146 13.3838 8.03606C12.9613 8.04531 12.1503 8.04531 10.5487 8.04531H10.545H7.30362H7.27188L7.24595 8.02701L7.12642 7.94264L7.12642 7.94264L7.12605 7.94237C6.73427 7.66313 6.76796 7.10444 7.17771 6.85449L7.17771 6.85448L7.17834 6.85411C7.21974 6.82927 7.26198 6.81391 7.34676 6.80347C7.42736 6.79355 7.554 6.78714 7.76826 6.78275C8.19847 6.77393 8.99876 6.77306 10.5309 6.77306C10.6939 6.77306 10.849 6.77304 10.9964 6.77301C12.4267 6.7728 13.1424 6.77269 13.5177 6.79521C13.7217 6.80746 13.8417 6.8268 13.9235 6.8659C13.9952 6.90019 14.036 6.95154 14.068 6.99167C14.0748 7.00021 14.0812 7.00825 14.0874 7.0155L14.0874 7.01549L14.0884 7.01679C14.2482 7.21017 14.2723 7.44594 14.1541 7.67961C14.129 7.73337 14.0933 7.78835 14.0575 7.83466C14.0222 7.88032 13.9813 7.92475 13.9439 7.95213L13.8848 7.87149ZM13.8848 7.87149C13.9375 7.83281 14.0219 7.72735 14.0641 7.63594C14.166 7.43555 14.1449 7.2422 14.0113 7.08048C13.9849 7.0495 13.9662 7.02314 13.9436 7.00071C13.8074 6.8653 13.5288 6.87306 10.5309 6.87306C7.46533 6.87306 7.33526 6.87658 7.22979 6.93986C6.87823 7.15431 6.85362 7.62539 7.18409 7.86094M13.8848 7.87149C13.7864 7.94531 13.7547 7.94531 10.545 7.94531H7.30362L7.18409 7.86094M7.18409 7.86094L7.18409 7.86094L7.18409 7.86094Z" fill="#430750" stroke="#430750" stroke-width="0.2"/>
    <path d="M13.8848 10.3324L13.9448 10.4124C13.931 10.4227 13.9119 10.4368 13.8839 10.4488C13.857 10.4603 13.8263 10.468 13.7881 10.4739C13.7137 10.4855 13.5939 10.4924 13.3838 10.497C12.9613 10.5063 12.1503 10.5063 10.5487 10.5062H10.545H7.30362H7.27188L7.24595 10.4879L7.12642 10.4036L7.12642 10.4036L7.12605 10.4033C6.73427 10.1241 6.76796 9.56537 7.17771 9.31542L7.17771 9.31542L7.17834 9.31504C7.21974 9.2902 7.26198 9.27485 7.34676 9.26441C7.42736 9.25448 7.554 9.24808 7.76826 9.24369C8.19847 9.23487 8.99876 9.234 10.5309 9.234C10.6939 9.234 10.849 9.23397 10.9964 9.23395C12.4267 9.23373 13.1424 9.23363 13.5177 9.25615C13.7217 9.2684 13.8417 9.28774 13.9235 9.32684C13.9952 9.36113 14.036 9.41248 14.068 9.45261C14.0748 9.46115 14.0812 9.46919 14.0874 9.47644L14.0874 9.47643L14.0884 9.47773C14.2482 9.67111 14.2723 9.90688 14.1541 10.1405C14.129 10.1943 14.0933 10.2493 14.0575 10.2956C14.0222 10.3413 13.9813 10.3857 13.9439 10.4131L13.8848 10.3324ZM13.8848 10.3324C13.9375 10.2938 14.0219 10.1883 14.0641 10.0969C14.166 9.89649 14.1449 9.70313 14.0113 9.54142C13.9849 9.51044 13.9662 9.48408 13.9436 9.46165C13.8074 9.32624 13.5288 9.334 10.5309 9.334C7.46533 9.334 7.33526 9.33751 7.22979 9.40079C6.87823 9.61524 6.85362 10.0863 7.18409 10.3219M13.8848 10.3324C13.7864 10.4062 13.7547 10.4062 10.545 10.4062H7.30362L7.18409 10.3219M7.18409 10.3219L7.18409 10.3219L7.18409 10.3219Z" fill="#430750" stroke="#430750" stroke-width="0.2"/>
    <path d="M9.79259 15.0996C9.78205 14.8218 9.76095 14.6601 9.72228 14.5793C9.5465 14.2277 8.98753 14.2242 8.78011 14.5722C8.72034 14.6812 8.70979 14.7515 8.71331 15.1523M9.79259 15.0996L20.9897 19.7788C20.944 19.7612 20.2128 19.2515 19.3585 18.6433C18.5077 18.0351 17.7378 17.5077 17.6534 17.4691M9.79259 15.0996C9.81017 15.5882 9.884 15.7956 10.1231 16.0171M9.79259 15.0996L8.61331 15.1531M8.71331 15.1523C8.71683 15.6867 8.77308 15.9433 8.96292 16.3054C9.20198 16.7554 9.65197 17.1175 10.2039 17.3003M8.71331 15.1523L8.61331 15.1532C8.61331 15.1531 8.61331 15.1531 8.61331 15.1531M8.71331 15.1523L8.61331 15.153L17.6123 17.5602M10.2039 17.3003C10.3832 17.3601 10.6363 17.3671 13.948 17.3847C17.3511 17.4023 17.5058 17.4058 17.6534 17.4691M10.2039 17.3003L10.1723 17.3952C10.2789 17.4307 10.403 17.447 10.899 17.4583C11.3998 17.4698 12.2921 17.4759 13.9475 17.4847H13.9475C15.6496 17.4935 16.5378 17.4988 17.0192 17.5097C17.5019 17.5207 17.5603 17.5381 17.6123 17.5602M10.2039 17.3003L10.1725 17.3952C9.5996 17.2055 9.12736 16.8281 8.8746 16.3523L8.87435 16.3518C8.7765 16.1652 8.71115 16.0019 8.67051 15.8147C8.63016 15.6286 8.61509 15.423 8.61331 15.1531M17.6534 17.4691L17.614 17.561C17.6135 17.5607 17.6129 17.5605 17.6123 17.5602M17.6534 17.4691L17.6118 17.56C17.6117 17.56 17.6117 17.56 17.6118 17.56C17.6119 17.56 17.612 17.5601 17.6123 17.5602M8.61331 15.1531C8.61157 14.954 8.61313 14.8297 8.62368 14.741C8.63502 14.6457 8.65705 14.5886 8.69243 14.5241L8.69237 14.5241L8.6942 14.521C8.81915 14.3114 9.04707 14.2119 9.26376 14.2134C9.48038 14.2149 9.70346 14.318 9.81173 14.5345L9.81174 14.5345L9.8125 14.5361C9.83875 14.591 9.8553 14.6642 9.8671 14.7523C9.87914 14.8421 9.8872 14.9556 9.89252 15.0958L9.89253 15.096C9.90122 15.3375 9.92369 15.499 9.96888 15.6247C10.0128 15.747 10.0804 15.8413 10.191 15.9438L10.1231 16.0171M10.1231 16.0171C10.174 16.064 10.2078 16.1024 10.2471 16.1339C10.4436 16.2914 10.7779 16.2773 14.0886 16.2949M10.1231 16.0171L10.1907 15.9435C10.2112 15.9624 10.229 15.9798 10.2446 15.9952L10.2484 15.9989C10.2626 16.013 10.2745 16.0247 10.2862 16.0355C10.3104 16.0578 10.3309 16.0735 10.3575 16.0866C10.414 16.1147 10.5101 16.138 10.7377 16.1538C11.1212 16.1804 11.8332 16.1838 13.2529 16.1907C13.5081 16.1919 13.7861 16.1933 14.0891 16.1949L14.0886 16.2949M14.0886 16.2949L14.0892 16.1949L17.6399 16.2124L17.6563 16.2125L17.6718 16.2178L17.9173 16.302L17.8855 16.3968M14.0886 16.2949L17.6394 16.3124L17.8855 16.3968M17.8855 16.3968L17.9179 16.3022L17.9176 16.3021C18.1153 16.3686 18.238 16.4155 18.4556 16.5494C18.6682 16.6803 18.9748 16.8963 19.5429 17.2996L19.5432 17.2998C19.8384 17.5107 20.1116 17.7048 20.314 17.848C20.3975 17.907 20.4689 17.9573 20.5248 17.9966M17.8855 16.3968C18.2722 16.5269 18.346 16.5726 19.4851 17.3812C19.942 17.7075 20.3463 17.9939 20.5173 18.1134C20.5197 18.091 20.5222 18.0563 20.5244 18.0058C20.5246 18.0027 20.5247 17.9997 20.5248 17.9966M20.5248 17.9966C20.5367 18.0049 20.5479 18.0127 20.5583 18.02C20.5841 18.0381 20.6053 18.0528 20.6215 18.064M20.5248 17.9966C20.53 17.8754 20.5338 17.6794 20.5364 17.3821C20.5417 16.7728 20.5417 15.7433 20.5382 14.0732M20.6215 18.064L18.9276 9.25821C18.9276 9.25821 18.9276 9.25821 18.9277 9.25821C19.3599 9.26703 19.5893 9.27316 19.732 9.28637C19.8679 9.29894 19.9176 9.31708 19.9918 9.35109L19.9929 9.35157C20.1918 9.43996 20.3603 9.60486 20.4557 9.81483L20.4559 9.81525L20.5277 9.97125M20.6215 18.064C20.6405 17.7546 20.6437 16.714 20.6382 14.073M20.6215 18.064L20.6276 9.94923M20.5382 14.0732L20.5277 9.97125M20.5382 14.0732L20.6382 14.073M20.5382 14.0732L20.5382 14.0733L20.6382 14.073M20.5277 9.97125L20.5276 9.94949L20.6276 9.94923M20.5277 9.97125L20.5368 9.99102L20.6276 9.94923M20.6276 9.94923L20.6382 14.073M21.6225 19.5644L21.6999 19.4483V14.6355C21.6999 10.0025 21.7079 9.62125 21.5563 9.32039C21.534 9.27607 21.5082 9.23349 21.4784 9.17932C21.2604 8.78909 20.9862 8.51839 20.61 8.318C20.2479 8.12816 20.0757 8.10004 19.1335 8.08597C18.6589 8.07894 18.2159 8.08246 18.1456 8.10004C17.8714 8.15629 17.7273 8.34261 17.7273 8.64144C17.7273 8.82776 17.7378 8.85589 17.8644 8.99299L21.6225 19.5644ZM20.6209 18.074C20.612 18.0725 20.6023 18.0721 20.592 18.0734C20.5667 18.0766 20.5488 18.0887 20.5385 18.0981C20.5314 18.1047 20.5263 18.1114 20.5227 18.1172C20.5695 18.1498 20.5976 18.1691 20.603 18.1722C20.6061 18.1741 20.609 18.1696 20.6117 18.1577C20.6118 18.1573 20.6119 18.1569 20.612 18.1565C20.6152 18.1412 20.6182 18.1145 20.6209 18.074Z" fill="#430750" stroke="#430750" stroke-width="0.2"/>
</svg>
