<svg width="17" height="16" viewBox="0 0 17 16" fill="none" xmlns="http://www.w3.org/2000/svg">
    <g clip-path="url(#clip0_84_1663)">
        <path d="M5.21875 14.125C5.77831 14.125 6.28113 13.8783 6.625 13.4882C6.96887 13.8783 7.47169 14.125 8.03125 14.125C8.59081 14.125 9.09363 13.8783 9.4375 13.4882C9.78137 13.8783 10.2842 14.125 10.8438 14.125C11.8777 14.125 12.7188 13.2839 12.7188 12.25C12.7188 11.287 11.9889 10.4916 11.0533 10.387C11.2233 10.0994 11.3128 9.7715 11.3125 9.4375C11.3125 8.4745 10.5827 7.67906 9.64709 7.57447C9.81704 7.28694 9.90656 6.959 9.90625 6.625C9.90625 5.59106 9.06519 4.75 8.03125 4.75C6.99731 4.75 6.15625 5.59106 6.15625 6.625C6.15594 6.959 6.24546 7.28694 6.41541 7.57447C5.47984 7.67906 4.75 8.47447 4.75 9.4375C4.74969 9.7715 4.83921 10.0994 5.00916 10.387C4.07359 10.4916 3.34375 11.287 3.34375 12.25C3.34375 13.2839 4.18481 14.125 5.21875 14.125ZM8.03125 13.1875C7.51428 13.1875 7.09375 12.767 7.09375 12.25C7.09375 11.733 7.51428 11.3125 8.03125 11.3125C8.54822 11.3125 8.96875 11.733 8.96875 12.25C8.96875 12.767 8.54822 13.1875 8.03125 13.1875ZM11.7812 12.25C11.7812 12.767 11.3607 13.1875 10.8438 13.1875C10.3268 13.1875 9.90625 12.767 9.90625 12.25C9.90625 11.733 10.3268 11.3125 10.8438 11.3125C11.3607 11.3125 11.7812 11.733 11.7812 12.25ZM10.375 9.4375C10.375 9.95447 9.95447 10.375 9.4375 10.375C8.92053 10.375 8.5 9.95447 8.5 9.4375C8.5 8.92053 8.92053 8.5 9.4375 8.5C9.95447 8.5 10.375 8.92053 10.375 9.4375ZM8.03125 5.6875C8.54822 5.6875 8.96875 6.10803 8.96875 6.625C8.96875 7.14197 8.54822 7.5625 8.03125 7.5625C7.51428 7.5625 7.09375 7.14197 7.09375 6.625C7.09375 6.10803 7.51428 5.6875 8.03125 5.6875ZM6.625 8.5C7.14197 8.5 7.5625 8.92053 7.5625 9.4375C7.5625 9.95447 7.14197 10.375 6.625 10.375C6.10803 10.375 5.6875 9.95447 5.6875 9.4375C5.6875 8.92053 6.10803 8.5 6.625 8.5ZM5.21875 11.3125C5.73572 11.3125 6.15625 11.733 6.15625 12.25C6.15625 12.767 5.73572 13.1875 5.21875 13.1875C4.70178 13.1875 4.28125 12.767 4.28125 12.25C4.28125 11.733 4.70178 11.3125 5.21875 11.3125Z" fill="#333333"/>
        <path d="M2.48563 16H16.5V1.40625C16.5 0.630844 15.8691 0 15.0938 0C14.3184 0 13.6875 0.630875 13.6875 1.40625V9.80237L10.4856 3.42309C10.0178 2.48756 9.07738 1.90625 8.03125 1.90625C6.98513 1.90625 6.04469 2.48756 5.57716 3.42259L0.709594 13.1263C0.57211 13.4022 0.500372 13.7062 0.5 14.0144C0.5 15.1093 1.39075 16 2.48563 16ZM14.625 15.0625V3.78125H15.5625V15.0625H14.625ZM15.0938 0.9375C15.3522 0.9375 15.5625 1.14781 15.5625 1.40625V2.84375H14.625V1.40625C14.625 1.14781 14.8353 0.9375 15.0938 0.9375ZM1.54784 13.5462L6.41541 3.84241C6.72337 3.22647 7.34253 2.84375 8.03125 2.84375C8.71997 2.84375 9.33912 3.22644 9.64747 3.84303L13.6875 11.8923V15.0625H2.48563C1.90769 15.0625 1.4375 14.5923 1.4375 14.0144C1.4377 13.8519 1.47547 13.6916 1.54784 13.5462Z" fill="#333333"/>
    </g>
    <defs>
        <clipPath id="clip0_84_1663">
            <rect width="16" height="16" fill="white" transform="translate(0.5)"/>
        </clipPath>
    </defs>
</svg>
