<svg width="16" height="16" viewBox="0 0 16 16" fill="none" xmlns="http://www.w3.org/2000/svg">
    <path d="M11.7422 7.81403C12.5739 7.91138 13.327 7.31598 13.4244 6.48414C13.5216 5.65252 12.9263 4.89938 12.0944 4.80209C11.2628 4.70473 10.5096 5.30013 10.4125 6.13191C10.315 6.96369 10.9105 7.71674 11.7422 7.81403ZM5.13834 6.58095L7.39375 6.13056L7.87875 6.91057L6.12158 8.58147C6.39291 8.65003 6.65348 8.75209 6.89571 8.8856C7.01189 8.94964 7.12077 9.02362 7.22604 9.09509C7.39561 9.21025 7.55518 9.3211 7.71334 9.36452C7.8384 9.39885 8.0023 9.40081 8.01271 9.40142C8.23547 9.3995 8.43174 9.33752 8.63207 9.20691C9.15309 8.86719 9.79259 8.51527 10.5857 8.48043C10.6443 8.47786 10.7034 8.47654 10.7616 8.47654C11.016 8.47654 11.2648 8.50155 11.5027 8.55001C11.3395 8.28943 8.43157 4.76559 8.43157 4.76559L8.35493 4.67391C8.16728 4.45087 7.85324 4.35757 7.5637 4.46368L4.82521 5.46811C4.56119 5.56466 4.39955 5.84176 4.45626 6.12596C4.51898 6.4399 4.82437 6.6436 5.13834 6.58095Z" fill="black"/>
    <path d="M15.1074 10.0846C14.7341 10.252 14.4559 10.3203 14.1468 10.3203C14.0251 10.3203 13.8992 10.3094 13.7618 10.2869C13.3043 10.2053 12.9782 9.94112 12.6628 9.68561C12.4688 9.52847 12.2856 9.38002 12.0736 9.27073C11.69 9.07186 11.2287 8.9668 10.7391 8.9668C10.6883 8.9668 10.6366 8.96798 10.5855 8.97024C9.91613 8.99961 9.37335 9.29743 8.88639 9.61488C8.60074 9.80121 8.2619 9.89063 7.95438 9.89063C7.86165 9.89063 7.67288 9.87029 7.55038 9.83494C7.31528 9.76715 7.11371 9.63019 6.91876 9.49785C6.81863 9.4298 6.72404 9.36559 6.62847 9.3129C6.21927 9.0873 5.74675 8.96805 5.26202 8.96805H5.25218C4.57355 8.97028 3.9598 9.17841 3.47737 9.5698C2.8056 10.115 2.36227 10.2682 2.23588 10.2898C2.23588 10.2898 2.12988 10.3175 1.90225 10.3175C1.46618 10.3175 1.10176 10.1746 0.735979 10.0156C0.479017 9.90381 0.236856 9.83967 0 9.82098C0.0452451 9.84709 0.0894573 9.87494 0.132536 9.90449C0.318195 10.0339 0.471008 10.1913 0.618717 10.3434C0.697793 10.4248 0.772442 10.5017 0.851754 10.5747C1.16228 10.8603 1.80316 11.198 2.5408 11.198C2.91509 11.198 3.27725 11.1166 3.61711 10.956C3.7171 10.9088 3.81446 10.8525 3.91749 10.793C4.08845 10.6943 4.26604 10.5949 4.46281 10.5286C4.71112 10.4449 5.09657 10.4726 5.09657 10.4726C5.4962 10.4982 5.79548 10.687 6.01155 10.8487C6.66984 11.3411 7.29092 11.5735 7.96614 11.58L8.00054 11.5802C8.46513 11.5802 8.89018 11.4907 9.26396 11.3141C9.43806 11.2318 9.60382 11.1108 9.77937 10.9825C10.1091 10.7417 10.45 10.4926 10.8891 10.4754C10.9157 10.4743 10.9422 10.4738 10.9688 10.4738C11.2092 10.4738 11.5712 10.5155 11.9306 10.7145C12.3631 10.9549 12.8863 11.2005 13.4901 11.2005C13.5778 11.2005 13.6673 11.1954 13.7562 11.1853C14.3119 11.1225 14.7816 10.9176 15.1523 10.5764C15.2317 10.5033 15.3066 10.4261 15.3858 10.3445C15.5547 10.1704 15.7294 9.99042 15.95 9.85376C15.9666 9.84346 15.9832 9.83349 16 9.82379C15.7333 9.84751 15.4508 9.93064 15.1074 10.0846Z" fill="black"/>
</svg>
