<svg width="24" height="21" viewBox="0 0 24 21" fill="none" xmlns="http://www.w3.org/2000/svg">
    <path d="M2.40002 6.5C2.40002 5.39543 3.47454 4.5 4.80002 4.5H12C13.3255 4.5 14.4 5.39543 14.4 6.5V14.5C14.4 15.6046 13.3255 16.5 12 16.5H4.80002C3.47454 16.5 2.40002 15.6046 2.40002 14.5V6.5Z" fill="white"/>
    <path d="M17.4634 7.60557C17.0568 7.77497 16.8 8.12123 16.8 8.5V12.5C16.8 12.8788 17.0568 13.225 17.4634 13.3944L19.8634 14.3944C20.2354 14.5494 20.6771 14.5329 21.0309 14.3507C21.3847 14.1684 21.6 13.8466 21.6 13.5V7.5C21.6 7.15342 21.3847 6.83156 21.0309 6.64935C20.6771 6.46714 20.2354 6.45058 19.8634 6.60557L17.4634 7.60557Z" fill="white"/>
</svg>
